<svg width="139.444824" height="34.042480" viewBox="0 0 139.445 34.0425" fill="none" xmlns="http://www.w3.org/2000/svg" xmlns:xlink="http://www.w3.org/1999/xlink">
	<defs>
		<linearGradient id="paint_linear_2002_936_0" x1="0.000000" y1="10.940529" x2="26.036940" y2="10.940529" gradientUnits="userSpaceOnUse">
			<stop stop-color="#FF02F0"/>
			<stop offset="1.000000" stop-color="#FFC800"/>
		</linearGradient>
	</defs>
	<path id="Vector" d="M13.05 8.37L4.12 16.08L0 11.29L13.07 0L26.03 11.29L21.89 16.07L13.05 8.37Z" fill="url(#paint_linear_2002_936_0)" fill-opacity="1.000000" fill-rule="evenodd"/>
	<path id="Vector" d="M45.81 27.93C42.76 27.93 40.22 26.94 38.16 24.96C36.1 22.95 35.09 20.37 35.09 17.23C35.09 14.07 36.13 11.46 38.19 9.43C40.28 7.36 42.82 6.34 45.84 6.34C49.56 6.34 52.86 7.95 54.78 10.47L51.42 14.01C49.82 12.28 48.07 11.41 46.18 11.41C44.57 11.41 43.24 11.94 42.14 13.05C41.07 14.15 40.53 15.54 40.53 17.21C40.53 18.82 41.07 20.18 42.14 21.28C43.24 22.35 44.57 22.89 46.15 22.89C48.21 22.89 50.01 21.99 51.51 20.2L55.01 23.57C54.05 24.84 52.75 25.89 51.14 26.71C49.53 27.53 47.76 27.93 45.81 27.93ZM60.93 6.03L60.93 27.62L55.96 27.62L55.96 6.03L60.93 6.03ZM65.64 10.61C63.97 10.61 62.76 9.4 62.76 7.73C62.76 6.12 64.03 4.9 65.64 4.9C67.25 4.9 68.49 6.12 68.49 7.73C68.49 9.4 67.25 10.61 65.64 10.61L65.64 10.61ZM68.15 12L68.15 27.62L63.15 27.62L63.15 12L68.15 12ZM77.71 27.96C75.25 27.96 73.28 27.19 71.73 25.66C70.2 24.14 69.44 22.18 69.44 19.78C69.44 17.37 70.2 15.42 71.76 13.9C73.31 12.37 75.31 11.6 77.79 11.6C81.04 11.6 83.89 13.19 85.22 16.16L81.24 18.25C80.45 16.92 79.35 16.24 77.91 16.24C76.86 16.24 76.02 16.58 75.34 17.26C75.02 17.6 74.76 17.99 74.59 18.42C74.43 18.85 74.34 19.32 74.35 19.78C74.35 21.84 75.85 23.37 77.85 23.37C79.29 23.37 80.62 22.58 81.18 21.36L85.16 23.74C83.8 26.34 81.01 27.96 77.71 27.96ZM102.48 27.62L96.55 27.62L91.95 21.42L91.22 22.1L91.22 27.62L86.26 27.62L86.26 6.03L91.22 6.03L91.22 16.53L95.91 12L101.97 12L95.29 18.28L102.48 27.62ZM102.82 19.5L102.82 6.71L108.12 6.71L108.12 19.41C108.12 21.76 109.48 22.89 111.42 22.89C113.34 22.89 114.7 21.7 114.7 19.41L114.7 6.71L120.03 6.71L120.03 19.5C120.03 25.66 115.77 27.98 111.42 27.98C107.11 27.98 102.82 25.66 102.82 19.5ZM131.82 11.6C134.05 11.6 135.86 12.4 137.3 13.98C138.74 15.54 139.44 17.49 139.44 19.78C139.44 22.07 138.71 24.02 137.27 25.64C135.83 27.22 134.02 28.01 131.85 28.01C130.13 28.01 128.63 27.45 127.42 26.32L127.42 34.04L122.42 34.04L122.42 12L127.34 12L127.34 13.44C128.55 12.23 130.04 11.6 131.82 11.6ZM134.36 19.84C134.36 17.8 132.89 16.24 130.86 16.24C128.83 16.24 127.34 17.8 127.34 19.84C127.34 20.83 127.67 21.67 128.32 22.38C129 23.09 129.85 23.43 130.86 23.43C131.88 23.43 132.72 23.09 133.37 22.38C134.02 21.69 134.38 20.78 134.36 19.84L134.36 19.84Z" fill="#000000" fill-opacity="1.000000" fill-rule="nonzero"/>
</svg>
