<svg width="23" height="24" viewBox="0 0 23 24" fill="none" xmlns="http://www.w3.org/2000/svg">
  <g clip-path="url(#clip0_2002_13)">
    <path d="M0.287842 0H21.9878V16.78C21.9878 17.192 21.7698 17.573 21.4148 17.782L11.7268 23.48C11.5483 23.585 11.345 23.6403 11.1378 23.6403C10.9307 23.6403 10.7274 23.585 10.5488 23.48L0.860842 17.782C0.686385 17.6793 0.541757 17.5328 0.441261 17.3571C0.340765 17.1814 0.287882 16.9824 0.287842 16.78V0Z" fill="#FF492C" />
    <path d="M16.6619 7.12598H14.5079C14.5659 6.79598 14.7739 6.61298 15.1979 6.40198L15.5959 6.20598C16.3059 5.85098 16.6829 5.45198 16.6829 4.79898C16.6893 4.60914 16.6478 4.42075 16.5621 4.25121C16.4765 4.08167 16.3495 3.93645 16.1929 3.82898C15.8749 3.59398 15.4839 3.47998 15.0349 3.47998C14.6769 3.47998 14.3519 3.56998 14.0519 3.75198C13.7715 3.91309 13.545 4.1535 13.4009 4.44298L14.0249 5.05098C14.2669 4.57498 14.6179 4.34098 15.0799 4.34098C15.4719 4.34098 15.7109 4.53798 15.7109 4.80998C15.7109 5.03898 15.5949 5.22798 15.1449 5.44998L14.8909 5.56998C14.3379 5.84198 13.9529 6.15398 13.7309 6.50798C13.5109 6.85698 13.3989 7.30698 13.3989 7.84598V7.99198H16.6609V7.12198L16.6619 7.12598ZM16.3739 8.99698H12.8039L11.0209 12.005H14.5899L16.3739 15.015L18.1589 12.005L16.3739 8.99698Z" fill="white" />
    <path d="M11.3288 14.013C9.05677 14.013 7.20877 12.213 7.20877 10.001C7.20877 7.788 9.05677 5.988 11.3288 5.988L12.7408 3.114C12.2754 3.02437 11.8027 2.97916 11.3288 2.979C7.34677 2.979 4.11877 6.122 4.11877 9.999C4.11877 13.876 7.34677 17.019 11.3288 17.019C12.9168 17.019 14.3838 16.519 15.5758 15.673L14.0128 13.038C13.2604 13.6679 12.31 14.0121 11.3288 14.01V14.013Z" fill="white" />
  </g>
  <defs>
    <clipPath id="clip0_2002_13">
      <rect width="22" height="24" fill="white" transform="translate(0.137817)" />
    </clipPath>
  </defs>
</svg>