<svg width="55.000000" height="55.000000" viewBox="0 0 55 55" fill="none" xmlns="http://www.w3.org/2000/svg" xmlns:xlink="http://www.w3.org/1999/xlink">
	<desc>
			Created with Pixso.
	</desc>
	<defs>
		<clipPath id="clip2002_61">
			<rect id="div.CuHomeTabs_svgContainer__TQmy5:mask" width="55.000000" height="55.000000" transform="translate(-0.222168 0.000000)" fill="white" fill-opacity="0"/>
		</clipPath>
		<clipPath id="clip2002_64">
			<rect id="SVG" width="28.799999" height="28.799999" transform="translate(12.877808 13.100098)" fill="white" fill-opacity="0"/>
		</clipPath>
	</defs>
	<mask id="mask2002_61" mask-type="alpha" maskUnits="userSpaceOnUse" x="-0.222168" y="0.000000" width="55.000000" height="55.000000">
		<rect id="div.CuHomeTabs_svgContainer__TQmy5:mask" width="55.000000" height="55.000000" transform="translate(-0.222168 0.000000)" fill="#FFFFFF" fill-opacity="0"/>
		<g clip-path="url(#clip2002_61)">
			<path id="Vector" d="M54.77 27.5C54.77 21.35 54.51 16.37 54.16 12.5C53.59 6.03 48.74 1.18 42.26 0.6C38.4 0.26 33.42 0 27.27 0C21.13 0 16.15 0.26 12.28 0.6C5.81 1.18 0.96 6.03 0.38 12.5C0.04 16.37 -0.23 21.35 -0.23 27.5C-0.23 33.87 0.06 38.99 0.42 42.92C1 49.15 5.6 53.83 11.84 54.39C15.69 54.73 20.77 55 27.27 55C33.78 55 38.86 54.73 42.71 54.39C48.95 53.83 53.55 49.15 54.12 42.92C54.49 38.99 54.77 33.87 54.77 27.5Z" fill="#000000" fill-opacity="1.000000" fill-rule="nonzero"/>
		</g>
	</mask>
	<g mask="url(#mask2002_61)">
		<rect id="div.CuHomeTabs_svgContainer__TQmy5" width="55.000000" height="55.000000" transform="translate(-0.222168 0.000000)" fill="#000" fill-opacity="1.000000"/>
		<g clip-path="url(#clip2002_64)">
			<path id="Vector" d="M38.63 14.46L40.67 17.27L34.29 34.12L28.16 31.83L35.31 14.72L38.63 14.46Z" fill="#7F76B3" fill-opacity="0.100000" fill-rule="nonzero"/>
			<path id="Vector" d="M32.36 37.27C31.05 38.48 28.49 40.79 28.14 40.66C27.78 40.52 27.54 37.11 27.44 35.37C27.4 34.72 27.51 34.07 27.75 33.46L28.14 32.46L34.44 16.33C35.07 14.71 36.87 13.85 38.49 14.47C40.07 15.07 40.81 16.87 40.19 18.45L33.97 34.38L33.49 35.59C33.25 36.23 32.86 36.81 32.36 37.27Z" fill="#7F76B3" fill-opacity="0.100000" fill-rule="nonzero"/>
			<path id="Vector" d="M27.75 33.46C27.51 34.07 27.4 34.72 27.44 35.37C27.54 37.11 27.78 40.52 28.14 40.66C28.49 40.79 31.05 38.48 32.36 37.27C32.86 36.81 33.25 36.23 33.49 35.59L33.97 34.38L40.19 18.45C40.81 16.87 40.07 15.07 38.49 14.47C36.87 13.85 35.07 14.71 34.44 16.33L28.14 32.46L27.75 33.46ZM28.14 32.46C28.14 32.46 29.44 32.26 31.22 32.85C33.01 33.44 33.97 34.38 33.97 34.38" stroke="#7F76B3" stroke-opacity="1.000000" stroke-width="2.000000" stroke-linejoin="round"/>
			<path id="Vector" d="M15.9 18.81C15.9 18.81 14.88 20.83 14.88 27.49C14.88 34.14 15.9 36.17 15.9 36.17" stroke="#7F76B3" stroke-opacity="1.000000" stroke-width="2.000000" stroke-linejoin="round" stroke-linecap="round"/>
			<path id="Vector" d="M18.45 16.25C18.45 16.25 19.73 15.49 23.95 15.23C28.16 14.98 30.46 15.49 30.46 15.49" stroke="#7F76B3" stroke-opacity="1.000000" stroke-width="2.000000" stroke-linejoin="round" stroke-linecap="round"/>
			<path id="Vector" d="M18.45 38.73L23.82 38.73" stroke="#7F76B3" stroke-opacity="1.000000" stroke-width="2.000000" stroke-linejoin="round" stroke-linecap="round"/>
			<path id="Vector" d="M13.86 16.51C13.86 17.78 14.89 18.81 16.16 18.81C17.43 18.81 18.45 17.78 18.45 16.51C18.45 15.24 17.43 14.21 16.16 14.21C14.89 14.21 13.86 15.24 13.86 16.51Z" fill="#7F76B3" fill-opacity="0.100000" fill-rule="nonzero"/>
			<path id="Vector" d="M16.16 18.81C17.43 18.81 18.45 17.78 18.45 16.51C18.45 15.24 17.43 14.21 16.16 14.21C14.89 14.21 13.86 15.24 13.86 16.51C13.86 17.78 14.89 18.81 16.16 18.81Z" stroke="#7F76B3" stroke-opacity="1.000000" stroke-width="2.000000" stroke-linejoin="round"/>
			<path id="Vector" d="M13.86 38.47C13.86 39.74 14.89 40.77 16.16 40.77C17.43 40.77 18.45 39.74 18.45 38.47C18.45 37.2 17.43 36.17 16.16 36.17C14.89 36.17 13.86 37.2 13.86 38.47Z" fill="#7F76B3" fill-opacity="0.100000" fill-rule="nonzero"/>
			<path id="Vector" d="M16.16 40.77C17.43 40.77 18.45 39.74 18.45 38.47C18.45 37.2 17.43 36.17 16.16 36.17C14.89 36.17 13.86 37.2 13.86 38.47C13.86 39.74 14.89 40.77 16.16 40.77Z" stroke="#7F76B3" stroke-opacity="1.000000" stroke-width="2.000000" stroke-linejoin="round"/>
		</g>
	</g>
</svg>
