<svg width="131.000000" height="21.000000" viewBox="0 0 131 21" fill="none" xmlns="http://www.w3.org/2000/svg" xmlns:xlink="http://www.w3.org/1999/xlink">
	<defs>
		<clipPath id="clip2002_973">
			<rect id="logo-v3-clickup-brain-dark-v2.svg" width="130.997147" height="21.080000" transform="translate(-0.490723 -0.549927)" fill="white" fill-opacity="0"/>
		</clipPath>
		<clipPath id="clip2002_972">
			<rect id="logo-v3-clickup-brain-dark-v2.svg fill" width="131.000000" height="21.080000" transform="translate(-0.492188 -0.549927)" fill="white" fill-opacity="0"/>
		</clipPath>
		<clipPath id="clip2002_971">
			<rect id="Picture → logo-v3-clickup-brain-dark-v2.svg" width="131.000000" height="21.080000" transform="translate(-0.492188 -0.549927)" fill="white" fill-opacity="0"/>
		</clipPath>
		<linearGradient id="paint_linear_2002_976_0" x1="10.562734" y1="12.103369" x2="16.089458" y2="1.049918" gradientUnits="userSpaceOnUse">
			<stop stop-color="#FF02F0"/>
			<stop offset="1.000000" stop-color="#FFC800"/>
		</linearGradient>
		<linearGradient id="paint_linear_2002_977_0" x1="3.309742" y1="16.594069" x2="6.764602" y2="9.685096" gradientUnits="userSpaceOnUse">
			<stop stop-color="#8930FD"/>
			<stop offset="1.000000" stop-color="#49CCF9"/>
		</linearGradient>
		<linearGradient id="paint_linear_2002_979_0" x1="99.785217" y1="27.670179" x2="126.655533" y2="1.750086" gradientUnits="userSpaceOnUse">
			<stop offset="0.080000" stop-color="#8930FD"/>
			<stop offset="0.232000" stop-color="#4BC9FA"/>
			<stop offset="0.542000" stop-color="#FF02F0"/>
			<stop offset="0.974000" stop-color="#FFC800"/>
		</linearGradient>
		<linearGradient id="paint_linear_2002_980_0" x1="99.785278" y1="27.670135" x2="126.655502" y2="1.750031" gradientUnits="userSpaceOnUse">
			<stop offset="0.080000" stop-color="#8930FD"/>
			<stop offset="0.232000" stop-color="#4BC9FA"/>
			<stop offset="0.542000" stop-color="#FF02F0"/>
			<stop offset="0.974000" stop-color="#FFC800"/>
		</linearGradient>
	</defs>
	<g clip-path="url(#clip2002_971)">
		<g clip-path="url(#clip2002_972)">
			<g clip-path="url(#clip2002_973)">
				<path id="Vector" d="M34.89 3.56L31.79 3.56L31.79 16.46L34.89 16.46L34.89 3.56Z" fill="#FFFFFF" fill-opacity="1.000000" fill-rule="nonzero"/>
				<path id="Vector" d="M25.53 16.52C23.7 16.52 22.18 15.93 20.95 14.75C19.71 13.54 19.1 12.01 19.1 10.13C19.1 8.24 19.73 6.68 20.96 5.46C22.22 4.23 23.74 3.62 25.55 3.62C27.78 3.62 29.76 4.58 30.91 6.09L28.89 8.2C27.93 7.17 26.88 6.65 25.75 6.65C24.79 6.65 23.99 6.97 23.33 7.63C22.69 8.29 22.37 9.11 22.37 10.11C22.37 11.08 22.69 11.89 23.33 12.55C23.99 13.19 24.79 13.51 25.73 13.51C26.97 13.51 28.05 12.97 28.94 11.9L31.04 13.92C30.47 14.68 29.69 15.3 28.72 15.79C27.76 16.28 26.7 16.52 25.53 16.52ZM39.53 4.59C39.53 5.04 39.36 5.46 39.04 5.78C38.73 6.09 38.3 6.27 37.86 6.27C37.41 6.27 36.98 6.09 36.67 5.78C36.35 5.46 36.18 5.04 36.18 4.59C36.18 4.15 36.35 3.72 36.67 3.4C36.98 3.09 37.41 2.91 37.86 2.91C38.3 2.91 38.73 3.09 39.04 3.4C39.36 3.72 39.53 4.15 39.53 4.59ZM39.4 7.04L36.31 7.04L36.31 16.46L39.4 16.46L39.4 7.04ZM45.39 16.54C43.92 16.54 42.74 16.08 41.81 15.17C40.89 14.25 40.44 13.09 40.44 11.65C40.44 10.21 40.89 9.05 41.82 8.13C42.75 7.22 43.95 6.76 45.44 6.76C47.39 6.76 49.09 7.71 49.89 9.49L47.5 10.74C47.03 9.94 46.37 9.54 45.51 9.54C44.88 9.54 44.38 9.74 43.97 10.15C43.58 10.55 43.38 11.06 43.38 11.65C43.38 12.89 44.28 13.8 45.48 13.8C46.34 13.8 47.13 13.32 47.47 12.6L49.85 14.02C49.04 15.57 47.37 16.54 45.39 16.54ZM53.73 3.56L50.63 3.56L50.63 16.46L53.73 16.46L53.73 13.18L54.09 12.84L56.92 16.46L60.53 16.46L56.18 10.89L60.31 7.04L56.52 7.04L53.73 9.65L53.73 3.56ZM61.09 11.59L61.09 3.56L64.31 3.56L64.31 11.41C64.31 12.81 65.13 13.49 66.31 13.49C67.48 13.49 68.31 12.78 68.31 11.41L68.31 3.56L71.54 3.56L71.54 11.59C71.54 15.27 68.95 16.66 66.31 16.66C63.69 16.66 61.09 15.27 61.09 11.59ZM78.51 16.72C81 16.72 83.03 14.53 83.03 11.82C83.03 9.11 81 6.91 78.51 6.91C77.52 6.92 76.56 7.26 75.8 7.89L75.8 7.04L72.83 7.04L72.83 20.33L75.8 20.33L75.8 15.74C76.56 16.37 77.52 16.72 78.51 16.72ZM75.8 11.82L75.8 11.81C75.8 10.6 76.75 9.62 77.93 9.62C79.11 9.62 80.06 10.61 80.06 11.82C80.06 13.03 79.11 14.01 77.93 14.01C76.75 14.01 75.8 13.03 75.8 11.82Z" fill="#FFFFFF" fill-opacity="1.000000" fill-rule="evenodd"/>
				<path id="Vector" d="M11.28 1.17C11.11 0.58 10.21 0.58 10.04 1.17L9.8 2C9.28 3.8 8.57 5.2 6.63 5.68L5.74 5.91C5.6 5.94 5.48 6.01 5.4 6.11C5.31 6.22 5.26 6.35 5.26 6.49C5.26 6.62 5.31 6.75 5.4 6.86C5.48 6.96 5.6 7.03 5.74 7.06L6.63 7.29C8.57 7.77 9.28 9.17 9.8 10.97L10.04 11.8C10.21 12.39 11.11 12.39 11.28 11.8L11.52 10.97C12.04 9.17 12.75 7.77 14.68 7.29L15.58 7.06C15.71 7.03 15.83 6.96 15.92 6.86C16.01 6.75 16.05 6.62 16.05 6.49C16.05 6.35 16.01 6.22 15.92 6.11C15.83 6.01 15.71 5.94 15.58 5.91L14.68 5.68C12.75 5.2 12.04 3.8 11.52 2L11.28 1.17Z" fill="url(#paint_linear_2002_976_0)" fill-opacity="1.000000" fill-rule="evenodd"/>
				<path id="Vector" d="M3.83 9.64C3.73 9.27 3.19 9.27 3.09 9.64L2.95 10.16C2.63 11.28 2.21 12.16 1.05 12.46L0.51 12.6C0.43 12.62 0.36 12.67 0.3 12.73C0.25 12.8 0.22 12.88 0.22 12.96C0.22 13.05 0.25 13.13 0.3 13.19C0.36 13.26 0.43 13.3 0.51 13.32L1.05 13.46C2.21 13.76 2.63 14.64 2.95 15.76L3.09 16.28C3.19 16.65 3.73 16.65 3.83 16.28L3.98 15.76C4.29 14.64 4.72 13.76 5.88 13.46L6.42 13.32C6.5 13.3 6.57 13.26 6.62 13.19C6.67 13.13 6.7 13.05 6.7 12.96C6.7 12.88 6.67 12.8 6.62 12.73C6.57 12.67 6.5 12.62 6.42 12.6L5.88 12.46C4.72 12.16 4.29 11.28 3.98 10.16L3.83 9.64Z" fill="url(#paint_linear_2002_977_0)" fill-opacity="1.000000" fill-rule="evenodd"/>
				<path id="Vector" d="M120.25 16.47L120.25 7.05L123.18 7.05L123.18 8.36C123.61 7.54 124.68 6.79 126.13 6.79C127.99 6.79 129.77 8.04 129.77 10.68L129.77 16.47L126.75 16.47L126.75 11.48C126.75 10.24 126.12 9.54 125.09 9.54C124.02 9.54 123.25 10.34 123.25 11.57L123.25 16.47L120.25 16.47ZM104.5 7.01C104.1 6.86 103.48 6.79 103.15 6.79C102.18 6.79 101.26 7.24 100.64 8.21L100.64 7.05L97.76 7.05L97.76 16.47L100.76 16.47L100.76 12.41C100.76 12.12 100.79 11.83 100.86 11.56C100.97 11.12 101.19 10.75 101.48 10.41C101.61 10.25 101.77 10.12 101.94 10.01C102.23 9.82 102.56 9.71 102.9 9.69C103.06 9.68 103.22 9.7 103.38 9.73L104.5 7.01Z" fill="#FFFFFF" fill-opacity="1.000000" fill-rule="nonzero"/>
				<path id="Vector" d="M117.38 6.1C116.39 6.1 115.64 5.36 115.64 4.36C115.64 3.35 116.41 2.65 117.38 2.65C118.35 2.65 119.11 3.38 119.11 4.36C119.11 5.33 118.35 6.1 117.38 6.1ZM118.9 16.47L115.88 16.47L115.88 7.05L118.9 7.05L118.9 16.47Z" fill="url(#paint_linear_2002_979_0)" fill-opacity="1.000000" fill-rule="nonzero"/>
				<path id="Vector" d="M111.7 7.05L114.53 7.05L114.53 16.47L111.7 16.47L111.7 15.65C111.04 16.26 110.13 16.7 108.92 16.7C106.19 16.7 104.31 14.5 104.31 11.72C104.31 8.94 106.26 6.81 108.92 6.81C110.13 6.81 111.04 7.27 111.7 7.9L111.7 7.05ZM109.48 13.96C110.73 13.96 111.67 12.95 111.67 11.74C111.67 10.53 110.73 9.56 109.48 9.56C108.24 9.56 107.32 10.56 107.32 11.74C107.32 12.92 108.24 13.96 109.48 13.96Z" fill="url(#paint_linear_2002_980_0)" fill-opacity="1.000000" fill-rule="nonzero"/>
				<path id="Vector" d="M94.36 9.56C95.98 9.95 96.75 11.29 96.75 12.77C96.75 14.89 95.15 16.49 92.69 16.49L86.49 16.49L86.49 3.88L92.4 3.88C94.87 3.88 96.08 5.47 96.08 7C96.08 8.11 95.38 9.19 94.36 9.56ZM91.8 6.58L89.62 6.58L89.62 8.71L91.66 8.71C92.62 8.71 92.96 8.15 92.96 7.63C92.96 7.09 92.55 6.58 91.8 6.58ZM92.01 13.76C93.08 13.76 93.47 13.09 93.47 12.51C93.47 11.88 93.05 11.25 92.07 11.25L89.62 11.25L89.62 13.76L92.01 13.76Z" fill="#FFFFFF" fill-opacity="1.000000" fill-rule="nonzero"/>
			</g>
		</g>
	</g>
</svg>
